# xmcd
#
# Track frame offsets: 
#        150
#        9110
#        19220
#        29596
#        45857
#        59642
#        69989
#        84223
#        97034
#        106267
#        118383
#        137530
#
# Disc length: 1975 seconds
#
# Revision: 2
# Processed by: cddbd v1.5.2PL0 Copyright (c) Steve Scherf et al.
# Submitted via: ExactAudioCopyFreeDBPlugin 1.0
#
DISCID=9407b50c
DTITLE=James Hunter - Kick It Around
DYEAR=1999
DGENRE=Blues
TTITLE0=Kick It Around
TTITLE1=Because You're Mine
TTITLE2=Mollena
TTITLE3=It's Easy To Say
TTITLE4=Lover's Question
TTITLE5=Better Luck Next Time
TTITLE6=Strange But True
TTITLE7=Dearest
TTITLE8=Believe Me Baby
TTITLE9=Lover's Prayer
TTITLE10=Night Bus
TTITLE11=Tell Her For Me
EXTD=
EXTT0=
EXTT1=
EXTT2=
EXTT3=
EXTT4=
EXTT5=
EXTT6=
EXTT7=
EXTT8=
EXTT9=
EXTT10=
EXTT11=
PLAYORDER=
